<?xml version="1.0" encoding="UTF-8"?>
<svg xmlns="http://www.w3.org/2000/svg" xmlns:xlink="http://www.w3.org/1999/xlink" width="90pt" height="74.999997pt" viewBox="0 0 90 74.999997" version="1.2">
<defs>
<clipPath id="clip1">
  <path d="M 0 5.59375 L 42 5.59375 L 42 69.285156 L 0 69.285156 Z M 0 5.59375 "/>
</clipPath>
<clipPath id="clip2">
  <path d="M 48 5.59375 L 90 5.59375 L 90 69.285156 L 48 69.285156 Z M 48 5.59375 "/>
</clipPath>
</defs>
<g id="surface1">
<g clip-path="url(#clip1)" clip-rule="nonzero">
<path style=" stroke:none;fill-rule:nonzero;fill:#D60C7D;fill-opacity:1;" d="M 22.574219 66.507812 C 22.578125 66.480469 18.898438 66.472656 18.566406 66.472656 L 2.773438 66.472656 C 2.753906 66.472656 2.789062 66.535156 2.789062 66.46875 L 2.789062 9.726562 C 2.789062 9.527344 2.816406 8.363281 2.765625 8.363281 L 38.449219 8.363281 C 38.890625 8.363281 38.65625 8.375 38.761719 7.996094 C 38.5625 8.703125 38.367188 9.410156 38.171875 10.117188 C 35.507812 19.714844 32.84375 29.3125 30.183594 38.910156 C 27.742188 47.691406 25.308594 56.472656 22.871094 65.253906 C 22.789062 65.550781 22.707031 65.84375 22.625 66.140625 C 22.148438 67.855469 24.8125 68.585938 25.285156 66.875 C 27.226562 59.886719 29.164062 52.902344 31.101562 45.917969 C 34.042969 35.320312 36.984375 24.722656 39.925781 14.125 C 40.3125 12.730469 40.699219 11.335938 41.085938 9.945312 C 41.394531 8.824219 41.761719 7.878906 40.976562 6.765625 C 39.992188 5.378906 38.328125 5.609375 36.851562 5.609375 C 34.75 5.609375 32.644531 5.609375 30.542969 5.609375 L 2.765625 5.609375 C 1.253906 5.609375 0.0273438 6.867188 0.0273438 8.367188 C 0.0273438 8.605469 0.0273438 8.84375 0.0273438 9.082031 L 0.0273438 65.105469 C 0.0273438 66.121094 -0.0898438 67.191406 0.535156 68.066406 C 1.667969 69.671875 4.210938 69.226562 5.925781 69.226562 L 22.503906 69.226562 C 24.125 69.226562 25.195312 68.058594 25.335938 66.507812 C 25.496094 64.738281 22.730469 64.75 22.574219 66.507812 "/>
</g>
<g clip-path="url(#clip2)" clip-rule="nonzero">
<path style=" stroke:none;fill-rule:nonzero;fill:#fca4d8;fill-opacity:1;" d="M 71.109375 66.507812 C 71.109375 66.480469 67.429688 66.472656 67.101562 66.472656 L 51.308594 66.472656 C 51.289062 66.472656 51.320312 66.535156 51.320312 66.46875 L 51.320312 9.726562 C 51.320312 9.527344 51.347656 8.363281 51.296875 8.363281 L 86.980469 8.363281 C 87.421875 8.363281 87.1875 8.375 87.292969 7.996094 C 87.097656 8.703125 86.902344 9.410156 86.703125 10.117188 C 84.042969 19.714844 81.378906 29.3125 78.714844 38.910156 C 76.277344 47.691406 73.839844 56.472656 71.402344 65.253906 C 71.320312 65.550781 71.238281 65.84375 71.160156 66.140625 C 70.683594 67.855469 73.34375 68.585938 73.820312 66.875 C 75.757812 59.886719 77.695312 52.902344 79.636719 45.917969 C 82.578125 35.320312 85.519531 24.722656 88.457031 14.125 C 88.84375 12.730469 89.230469 11.335938 89.617188 9.945312 C 89.929688 8.824219 90.296875 7.878906 89.507812 6.765625 C 88.523438 5.378906 86.859375 5.609375 85.382812 5.609375 C 83.28125 5.609375 81.179688 5.609375 79.074219 5.609375 L 51.296875 5.609375 C 49.785156 5.609375 48.5625 6.867188 48.5625 8.367188 L 48.5625 65.105469 C 48.5625 66.121094 48.445312 67.191406 49.066406 68.066406 C 50.199219 69.671875 52.746094 69.226562 54.457031 69.226562 L 71.035156 69.226562 C 72.65625 69.226562 73.730469 68.058594 73.871094 66.507812 C 74.027344 64.738281 71.265625 64.75 71.109375 66.507812 "/>
</g>
</g>
</svg>
